<svg width="18" height="18" viewBox="0 0 18 18" fill="none" xmlns="http://www.w3.org/2000/svg">
    <path d="M17.7442 16.5324L12.0327 10.8209C12.919 9.67514 13.3985 8.27423 13.3985 6.80073C13.3985 5.03694 12.7101 3.38311 11.4653 2.13614C10.2206 0.889167 8.56233 0.203003 6.80073 0.203003C5.03914 0.203003 3.38091 0.891366 2.13614 2.13614C0.889167 3.38091 0.203003 5.03694 0.203003 6.80073C0.203003 8.56233 0.891366 10.2206 2.13614 11.4653C3.38091 12.7123 5.03694 13.3985 6.80073 13.3985C8.27423 13.3985 9.67294 12.919 10.8188 12.0349L16.5302 17.7442C16.5469 17.7609 16.5668 17.7742 16.5887 17.7833C16.6106 17.7924 16.6341 17.797 16.6577 17.797C16.6814 17.797 16.7049 17.7924 16.7268 17.7833C16.7487 17.7742 16.7685 17.7609 16.7853 17.7442L17.7442 16.7875C17.7609 16.7707 17.7742 16.7509 17.7833 16.729C17.7924 16.7071 17.797 16.6836 17.797 16.6599C17.797 16.6362 17.7924 16.6128 17.7833 16.5909C17.7742 16.569 17.7609 16.5491 17.7442 16.5324ZM10.2843 10.2843C9.35186 11.2146 8.11588 11.727 6.80073 11.727C5.48559 11.727 4.24961 11.2146 3.31713 10.2843C2.38685 9.35186 1.87443 8.11588 1.87443 6.80073C1.87443 5.48559 2.38685 4.24741 3.31713 3.31713C4.24961 2.38685 5.48559 1.87443 6.80073 1.87443C8.11588 1.87443 9.35405 2.38465 10.2843 3.31713C11.2146 4.24961 11.727 5.48559 11.727 6.80073C11.727 8.11588 11.2146 9.35405 10.2843 10.2843Z" fill="#585858"/>
</svg>
